<svg width="56" height="14" viewBox="0 0 56 14" fill="none" xmlns="http://www.w3.org/2000/svg">
    <g clip-path="url(#clip0_2416_1129)">
        <path
            d="M14.9645 10.9312L10.8081 6.99219L3.40771 13.9992H13.6237C15.3146 13.9992 16.16 12.0632 14.9645 10.9312Z"
            fill="#223354" />
        <path
            d="M1.70578 0H12.0484C13.5419 0 14.2868 1.7068 13.2328 2.70831L1.58288 13.739C0.994424 14.2962 -0.003714 13.8977 1.03931e-05 13.1113L0.0298055 1.57985C0.0335299 0.70529 0.782133 0 1.70578 0Z"
            fill="#223354" />
        <path
            d="M28.3984 11.06C28.3984 11.7018 27.7355 12.0368 26.7336 12.0368C25.7318 12.0368 24.715 11.73 24.715 9.79047V6.14413H24.0707C23.5977 6.14413 23.2886 5.85143 23.2886 5.43178C23.2886 4.99803 23.5977 4.70533 24.0707 4.70533H24.715V3.76025C24.715 3.25949 25.1582 2.83984 25.6871 2.83984C26.2197 2.83984 26.6443 3.25949 26.6443 3.76025V4.70886H27.6163C28.1042 4.70886 28.3984 5.00156 28.3984 5.43531C28.3984 5.85496 28.1042 6.14765 27.6163 6.14765H26.6443V9.8469C26.6443 10.2524 26.7932 10.4605 27.1173 10.4605C27.2811 10.4605 27.5158 10.4041 27.6759 10.4041C28.1191 10.3759 28.3984 10.6262 28.3984 11.06Z"
            fill="#223354" />
        <path
            d="M31.4486 5.58597V11.1119C31.4486 11.6268 31.0054 12.0464 30.4914 12.0464C29.9626 12.0464 29.5194 11.6268 29.5194 11.1119V5.66002C29.5194 5.22627 29.8024 4.81367 30.2456 4.6973C30.8564 4.53861 31.4486 5.0041 31.4486 5.58597ZM30.1041 2.26758H30.808C31.2959 2.26758 31.538 2.82476 31.1953 3.14919L30.2605 4.03433C29.9849 4.29529 29.5156 4.10838 29.5156 3.74163L29.5194 2.82123C29.5194 2.51443 29.7838 2.26758 30.1041 2.26758Z"
            fill="#223354" />
        <path
            d="M39.9069 11.2393C39.9069 11.6589 39.5381 12.0363 39.0502 12.0363C38.8156 12.0363 38.5921 11.9375 38.4618 11.7859L35.8249 9.00705L34.9385 9.78992V11.13C34.9385 11.6307 34.4953 12.0363 33.9813 12.0363C33.4488 12.0363 33.0093 11.6307 33.0093 11.13V2.9063C33.0093 2.41612 33.4525 2 33.9813 2C34.499 2 34.9385 2.41965 34.9385 2.9063V7.63879L37.8584 4.93048C38.0223 4.77531 38.257 4.66599 38.5065 4.66599C38.9944 4.66599 39.378 5.05743 39.378 5.49118C39.378 5.72746 39.2886 5.92494 39.1434 6.07657L37.0205 7.94559L39.6573 10.6821C39.7877 10.8055 39.9069 11.003 39.9069 11.2393Z"
            fill="#223354" />
        <path
            d="M45.8101 2.41306C44.6295 2.05336 43.3185 2.0322 42.1229 2.35311C41.9255 2.40601 41.7654 2.52591 41.6648 2.69518C41.5643 2.86445 41.5419 3.0584 41.5978 3.2453C41.6537 3.4322 41.7803 3.58384 41.9591 3.67906C42.1378 3.77427 42.3427 3.79543 42.5401 3.74253C43.4488 3.49921 44.447 3.51331 45.3445 3.78838C45.419 3.81306 45.4972 3.82364 45.5792 3.82364C45.9106 3.82364 46.2012 3.62263 46.3054 3.32288C46.4321 2.94203 46.2123 2.53649 45.8101 2.41306Z"
            fill="#223354" />
        <path
            d="M47.6612 7.8894C47.6612 8.61585 47.2329 8.86623 46.4508 8.86623L42.0709 8.83802C42.2497 9.85716 43.1026 10.4002 44.1789 10.4002C44.7115 10.4002 44.9611 10.2874 45.4043 10.1075C45.6687 9.99469 45.8773 9.88537 46.1268 9.88537C46.5402 9.88537 46.7897 10.164 46.7897 10.5131C46.7897 10.7352 46.6855 10.9892 46.3167 11.2818C45.773 11.6451 45.0355 11.8813 44.1044 11.8813C42.1454 11.8813 40.0635 10.7352 40.0635 8.19621C40.0635 5.68537 42.2609 4.46875 43.9406 4.46875C45.6203 4.46875 47.6612 5.72769 47.6612 7.8894ZM42.0747 7.5826H45.7618C45.6128 6.50704 44.7897 6.0627 43.948 6.0627C43.1063 6.0627 42.205 6.51056 42.0747 7.5826Z"
            fill="#223354" />
        <path
            d="M56.0001 7.8894C56.0001 8.61585 55.5718 8.86623 54.7897 8.86623L50.4098 8.83802C50.5886 9.85716 51.4414 10.4002 52.5178 10.4002C53.0504 10.4002 53.2999 10.2874 53.7431 10.1075C54.0076 9.99469 54.2161 9.88537 54.4657 9.88537C54.8791 9.88537 55.1286 10.164 55.1286 10.5131C55.1286 10.7352 55.0243 10.9892 54.6556 11.2818C54.1118 11.6451 53.3744 11.8813 52.4433 11.8813C50.4843 11.8813 48.4023 10.7352 48.4023 8.19621C48.4023 5.68537 50.5997 4.46875 52.2794 4.46875C53.9591 4.46875 56.0001 5.72769 56.0001 7.8894ZM50.4135 7.5826H54.1007C53.9517 6.50704 53.1286 6.0627 52.2869 6.0627C51.4452 6.0627 50.5476 6.51056 50.4135 7.5826Z"
            fill="#223354" />
    </g>
    <defs>
        <clipPath id="clip0_2416_1129">
            <rect width="56" height="14" fill="white" />
        </clipPath>
    </defs>
</svg>